<mxfile host="app.diagrams.net" agent="Mozilla/5.0 (X11; Linux x86_64; rv:143.0) Gecko/20100101 Firefox/143.0" version="28.2.5">
  <diagram name="Page-1" id="-wG7VOVOa7xfsevdRYEh">
    <mxGraphModel dx="823" dy="612" grid="1" gridSize="10" guides="1" tooltips="1" connect="1" arrows="1" fold="1" page="1" pageScale="1" pageWidth="850" pageHeight="1100" math="0" shadow="0">
      <root>
        <mxCell id="0" />
        <mxCell id="1" parent="0" />
        <mxCell id="FfjIJ2Lr_pXEoXf71D_--16" style="edgeStyle=orthogonalEdgeStyle;rounded=0;orthogonalLoop=1;jettySize=auto;html=1;exitX=1;exitY=0.75;exitDx=0;exitDy=0;entryX=0.25;entryY=0;entryDx=0;entryDy=0;" edge="1" parent="1" source="FfjIJ2Lr_pXEoXf71D_--1" target="FfjIJ2Lr_pXEoXf71D_--2">
          <mxGeometry relative="1" as="geometry" />
        </mxCell>
        <mxCell id="FfjIJ2Lr_pXEoXf71D_--17" style="edgeStyle=orthogonalEdgeStyle;rounded=0;orthogonalLoop=1;jettySize=auto;html=1;exitX=0.75;exitY=1;exitDx=0;exitDy=0;entryX=0.75;entryY=0;entryDx=0;entryDy=0;" edge="1" parent="1" source="FfjIJ2Lr_pXEoXf71D_--1" target="FfjIJ2Lr_pXEoXf71D_--3">
          <mxGeometry relative="1" as="geometry" />
        </mxCell>
        <mxCell id="FfjIJ2Lr_pXEoXf71D_--1" value="&lt;div&gt;Frontend&lt;/div&gt;&lt;div&gt;React-TS&lt;/div&gt;" style="rounded=0;whiteSpace=wrap;html=1;" vertex="1" parent="1">
          <mxGeometry x="160" width="120" height="60" as="geometry" />
        </mxCell>
        <mxCell id="FfjIJ2Lr_pXEoXf71D_--15" style="edgeStyle=orthogonalEdgeStyle;rounded=0;orthogonalLoop=1;jettySize=auto;html=1;exitX=0.75;exitY=0;exitDx=0;exitDy=0;entryX=1;entryY=0.25;entryDx=0;entryDy=0;" edge="1" parent="1" source="FfjIJ2Lr_pXEoXf71D_--2" target="FfjIJ2Lr_pXEoXf71D_--1">
          <mxGeometry relative="1" as="geometry" />
        </mxCell>
        <mxCell id="FfjIJ2Lr_pXEoXf71D_--21" style="edgeStyle=orthogonalEdgeStyle;rounded=0;orthogonalLoop=1;jettySize=auto;html=1;exitX=0.75;exitY=1;exitDx=0;exitDy=0;entryX=0.5;entryY=0;entryDx=0;entryDy=0;" edge="1" parent="1" source="FfjIJ2Lr_pXEoXf71D_--2" target="FfjIJ2Lr_pXEoXf71D_--12">
          <mxGeometry relative="1" as="geometry" />
        </mxCell>
        <mxCell id="FfjIJ2Lr_pXEoXf71D_--22" style="edgeStyle=orthogonalEdgeStyle;rounded=0;orthogonalLoop=1;jettySize=auto;html=1;exitX=0.75;exitY=1;exitDx=0;exitDy=0;" edge="1" parent="1" source="FfjIJ2Lr_pXEoXf71D_--2">
          <mxGeometry relative="1" as="geometry">
            <mxPoint x="250" y="279.9999999999999" as="targetPoint" />
          </mxGeometry>
        </mxCell>
        <mxCell id="FfjIJ2Lr_pXEoXf71D_--2" value="&lt;div&gt;Python&lt;/div&gt;Flask" style="rounded=0;whiteSpace=wrap;html=1;" vertex="1" parent="1">
          <mxGeometry x="320" y="110" width="120" height="60" as="geometry" />
        </mxCell>
        <mxCell id="FfjIJ2Lr_pXEoXf71D_--23" style="edgeStyle=orthogonalEdgeStyle;rounded=0;orthogonalLoop=1;jettySize=auto;html=1;exitX=1;exitY=0.5;exitDx=0;exitDy=0;entryX=0.25;entryY=1;entryDx=0;entryDy=0;" edge="1" parent="1" source="FfjIJ2Lr_pXEoXf71D_--3" target="FfjIJ2Lr_pXEoXf71D_--2">
          <mxGeometry relative="1" as="geometry" />
        </mxCell>
        <mxCell id="FfjIJ2Lr_pXEoXf71D_--24" style="edgeStyle=orthogonalEdgeStyle;rounded=0;orthogonalLoop=1;jettySize=auto;html=1;exitX=0.25;exitY=0;exitDx=0;exitDy=0;entryX=0.25;entryY=1;entryDx=0;entryDy=0;" edge="1" parent="1" source="FfjIJ2Lr_pXEoXf71D_--3" target="FfjIJ2Lr_pXEoXf71D_--1">
          <mxGeometry relative="1" as="geometry" />
        </mxCell>
        <mxCell id="FfjIJ2Lr_pXEoXf71D_--25" style="edgeStyle=orthogonalEdgeStyle;rounded=0;orthogonalLoop=1;jettySize=auto;html=1;exitX=0.75;exitY=1;exitDx=0;exitDy=0;entryX=0.75;entryY=0;entryDx=0;entryDy=0;" edge="1" parent="1" source="FfjIJ2Lr_pXEoXf71D_--3" target="FfjIJ2Lr_pXEoXf71D_--4">
          <mxGeometry relative="1" as="geometry" />
        </mxCell>
        <mxCell id="FfjIJ2Lr_pXEoXf71D_--3" value="ORDS" style="rounded=0;whiteSpace=wrap;html=1;" vertex="1" parent="1">
          <mxGeometry x="160" y="280" width="120" height="60" as="geometry" />
        </mxCell>
        <mxCell id="FfjIJ2Lr_pXEoXf71D_--26" style="edgeStyle=orthogonalEdgeStyle;rounded=0;orthogonalLoop=1;jettySize=auto;html=1;exitX=0.25;exitY=0;exitDx=0;exitDy=0;entryX=0.25;entryY=1;entryDx=0;entryDy=0;" edge="1" parent="1" source="FfjIJ2Lr_pXEoXf71D_--4" target="FfjIJ2Lr_pXEoXf71D_--3">
          <mxGeometry relative="1" as="geometry" />
        </mxCell>
        <mxCell id="FfjIJ2Lr_pXEoXf71D_--4" value="Oracle DB" style="rounded=0;whiteSpace=wrap;html=1;" vertex="1" parent="1">
          <mxGeometry x="160" y="420" width="120" height="60" as="geometry" />
        </mxCell>
        <mxCell id="FfjIJ2Lr_pXEoXf71D_--14" style="edgeStyle=orthogonalEdgeStyle;rounded=0;orthogonalLoop=1;jettySize=auto;html=1;exitX=0.5;exitY=1;exitDx=0;exitDy=0;entryX=1;entryY=0.5;entryDx=0;entryDy=0;" edge="1" parent="1" source="FfjIJ2Lr_pXEoXf71D_--12" target="FfjIJ2Lr_pXEoXf71D_--2">
          <mxGeometry relative="1" as="geometry">
            <Array as="points">
              <mxPoint x="540" y="400" />
              <mxPoint x="640" y="400" />
              <mxPoint x="640" y="140" />
            </Array>
          </mxGeometry>
        </mxCell>
        <mxCell id="FfjIJ2Lr_pXEoXf71D_--12" value="LLM" style="rounded=0;whiteSpace=wrap;html=1;" vertex="1" parent="1">
          <mxGeometry x="480" y="280" width="120" height="60" as="geometry" />
        </mxCell>
      </root>
    </mxGraphModel>
  </diagram>
</mxfile>
